<svg height="48pt" viewBox="0 0 48 48" width="48pt" xmlns="http://www.w3.org/2000/svg" xmlns:xlink="http://www.w3.org/1999/xlink"><linearGradient id="a" gradientTransform="matrix(46.5 0 0 43 .75 1.5)" gradientUnits="userSpaceOnUse" x1=".220786" x2=".902249" y1=".04724" y2=".906146"><stop offset=".02608695652" stop-color="#edb8d4"/><stop offset=".98695652174" stop-color="#a26ef5"/></linearGradient><path d="m43.293 11v-1.366c0-2.563-2.082-4.645-4.645-4.645h-3.242l3.004 3.011-2.994 3zm-38.586 0v-1.366c0-2.563 2.082-4.645 4.645-4.645h2.218l3.02 3.011-3.009 3zm9.709 0 2.994-3-3.004-3.011h8.164l3.02 3.011-3.009 3zm11 0 2.994-3-3.004-3.011h7.164l3.02 3.011-3.009 3zm17.877 3v22.366c0 2.563-2.082 4.645-4.645 4.645h-6.911c-.525 0-1.029.183-1.405.514-.366.323-.574.768-.574 1.23 0 .463.208.908.574 1.23.376.332.88.515 1.405.515h9.01c3.589 0 6.503-2.914 6.503-6.503v-29.994c0-3.589-2.914-6.503-6.503-6.503h-33.494c-3.589 0-6.503 2.914-6.503 6.503v29.994c0 3.589 2.914 6.503 6.503 6.503h9.01c.525 0 1.029-.183 1.405-.515.366-.322.574-.767.574-1.23 0-.462-.208-.907-.574-1.23-.376-.331-.88-.514-1.405-.514h-6.911c-2.563 0-4.645-2.082-4.645-4.645v-22.366zm-12.54 12.774v.453l.375.374 3.858 3.858v-8.918l-3.858 3.858zm0-3.651v-2.184c0-1.07-.869-1.939-1.939-1.939h-17.092c-.714 0-1.293.579-1.293 1.292 0 .714.579 1.293 1.293 1.293h15.8c.357 0 .646.289.646.646v9.539c0 .356-.289.646-.646.646h-13.862c-.356 0-.646-.29-.646-.646v-6.935c0-.713-.579-1.292-1.292-1.292-.714 0-1.293.579-1.293 1.292v8.227c0 1.07.869 1.939 1.939 1.939h16.446c1.07 0 1.939-.869 1.939-1.939v-2.184l3.02 3.02c.252.252.746.456 1.103.456h2.049c.356 0 .646-.289.646-.646v-13.416c0-.356-.29-.646-.646-.646h-2.049c-.357 0-.851.205-1.103.457z" fill="url(#a)" fill-rule="evenodd"/></svg>